<?xml version="1.0" encoding="UTF-8" standalone="no"?>
<svg
   xmlns:dc="http://purl.org/dc/elements/1.1/"
   xmlns:cc="http://creativecommons.org/ns#"
   xmlns:rdf="http://www.w3.org/1999/02/22-rdf-syntax-ns#"
   xmlns:svg="http://www.w3.org/2000/svg"
   xmlns="http://www.w3.org/2000/svg"
   xmlns:sodipodi="http://sodipodi.sourceforge.net/DTD/sodipodi-0.dtd"
   xmlns:inkscape="http://www.inkscape.org/namespaces/inkscape"
   inkscape:export-ydpi="57.599998"
   inkscape:export-xdpi="57.599998"
   inkscape:export-filename="d:\repos\string-theory\96px.png"
   sodipodi:docname="logo.svg"
   inkscape:version="1.0alpha (8ff49b2, 2019-01-22)"
   id="svg8"
   version="1.1"
   viewBox="0 0 42.333331 42.333333"
   height="160"
   width="160">
  <defs
     id="defs2" />
  <sodipodi:namedview
     units="px"
     fit-margin-bottom="0"
     fit-margin-right="0"
     fit-margin-left="0"
     fit-margin-top="0"
     inkscape:window-maximized="1"
     inkscape:window-y="-11"
     inkscape:window-x="3829"
     inkscape:window-height="3746"
     inkscape:window-width="2160"
     inkscape:snap-global="true"
     showgrid="true"
     inkscape:document-rotation="0"
     inkscape:current-layer="layer1"
     inkscape:document-units="mm"
     inkscape:cy="100.50786"
     inkscape:cx="38.838345"
     inkscape:zoom="4"
     inkscape:pageshadow="2"
     inkscape:pageopacity="0.0"
     borderopacity="1.0"
     bordercolor="#666666"
     pagecolor="#ffffff"
     id="base">
    <inkscape:grid
       originy="0"
       originx="0"
       id="grid30"
       type="xygrid" />
  </sodipodi:namedview>
  <metadata
     id="metadata5">
    <rdf:RDF>
      <cc:Work
         rdf:about="">
        <dc:format>image/svg+xml</dc:format>
        <dc:type
           rdf:resource="http://purl.org/dc/dcmitype/StillImage" />
        <dc:title></dc:title>
      </cc:Work>
    </rdf:RDF>
  </metadata>
  <g
     transform="translate(-17.090269,-80.208046)"
     id="layer1"
     inkscape:groupmode="layer"
     inkscape:label="Layer 1">
    <g
       transform="rotate(-45,37.905267,103.33636)"
       id="g973">
      <path
         style="opacity:1;fill:#4d4d4d;fill-opacity:1;stroke:none;stroke-width:0.0352778;stroke-miterlimit:4;stroke-dasharray:none;stop-opacity:1"
         d="m 53.353232,104.55483 c 0.827107,-1.43259 0.827107,-3.19762 0,-4.630211 -0.827108,-1.43259 -2.355664,-2.315104 -4.009879,-2.315103 l -5.291665,10e-7 v 2.645833 h 5.291665 c 0.708948,0 1.364044,0.37822 1.718518,0.99219 0.354474,0.61397 0.354474,1.37041 1e-6,1.98437 -0.354475,0.61397 -1.009569,0.99219 -1.718519,0.99219 h -5.291665 l 2e-6,2.64583 h 5.291663 c 1.654214,0 3.182771,-0.88251 4.009879,-2.3151 z"
         id="path927"
         inkscape:connector-curvature="0"
         sodipodi:nodetypes="ssccccssccccs" />
      <path
         sodipodi:nodetypes="ccccssccccssc"
         inkscape:connector-curvature="0"
         id="path929"
         d="m 49.343355,110.83869 -5.291664,-1e-5 -3e-6,-2.64582 h 5.291665 c 2.126846,0 4.092134,-1.13467 5.155557,-2.97657 1.063424,-1.8419 1.063424,-4.11122 10e-7,-5.953125 -1.063424,-1.841902 -3.028708,-2.976565 -5.155558,-2.976563 l -5.291666,-2e-6 v -2.645834 h 5.291666 c 3.072113,0 5.910861,1.638952 7.446916,4.299479 1.536056,2.660525 1.536056,5.938435 0,8.598955 -1.536056,2.66053 -4.374804,4.29949 -7.446915,4.29948"
         style="opacity:1;fill:#4d4d4d;fill-opacity:1;stroke:none;stroke-width:0.0352778;stroke-miterlimit:4;stroke-dasharray:none;stop-opacity:1" />
      <rect
         y="92.317856"
         x="34.2621"
         height="19.84375"
         width="2.6458333"
         id="rect931"
         style="opacity:1;fill:#4d4d4d;fill-opacity:1;stroke:none;stroke-width:0.264583;stop-opacity:1" />
      <path
         sodipodi:nodetypes="ssccccssccccs"
         inkscape:connector-curvature="0"
         id="path933"
         d="m 22.843894,104.55483 c -0.827108,-1.43259 -0.827109,-3.19762 -10e-7,-4.630209 0.827109,-1.432593 2.355663,-2.315103 4.00988,-2.315105 l 5.291664,10e-7 -2e-6,2.645833 h -5.291663 c -0.708946,0 -1.364046,0.37823 -1.718518,0.99219 -0.354474,0.61397 -0.354471,1.37041 3e-6,1.98437 0.354473,0.61397 1.009575,0.99218 1.718514,0.99219 h 5.291664 l 5e-6,2.64583 h -5.291664 c -1.654218,0 -3.182774,-0.88251 -4.009882,-2.3151 z"
         style="opacity:1;fill:#4d4d4d;fill-opacity:1;stroke:none;stroke-width:0.0352778;stroke-miterlimit:4;stroke-dasharray:none;stop-opacity:1" />
      <path
         style="opacity:1;fill:#4d4d4d;fill-opacity:1;stroke:none;stroke-width:0.0352778;stroke-miterlimit:4;stroke-dasharray:none;stop-opacity:1"
         d="m 26.853769,110.83869 5.291671,-1e-5 -3e-6,-2.64582 -5.291663,-10e-6 c -2.126848,10e-6 -4.092136,-1.13466 -5.155558,-2.97656 -1.063421,-1.84191 -1.063422,-4.11122 -3e-6,-5.953122 1.063426,-1.841907 3.028708,-2.976566 5.155559,-2.976566 l 5.291663,10e-7 2e-6,-2.645835 -5.291664,-2e-6 c -3.072111,-2e-6 -5.910858,1.638949 -7.446919,4.299481 -1.536055,2.660523 -1.536056,5.938433 1e-6,8.598953 1.536054,2.66053 4.374832,4.29946 7.446915,4.29949"
         id="path935"
         inkscape:connector-curvature="0"
         sodipodi:nodetypes="ccccssccccssc" />
      <path
         sodipodi:nodetypes="ccccccc"
         inkscape:connector-curvature="0"
         id="path937"
         d="m 37.670141,126.51946 -1.870888,-1.87089 c 2.432152,-2.43215 3.573455,-7.21259 3.489932,-12.48697 V 92.317849 l 2.645833,-10e-7 2e-6,19.843742 c 2e-6,6.6146 -1.458549,11.55154 -4.264879,14.35787 z"
         style="opacity:1;fill:#4d4d4d;stroke:none;stroke-width:0.264583px;stroke-linecap:butt;stroke-linejoin:miter;stroke-opacity:1;stop-opacity:1" />
    </g>
  </g>
</svg>
